<svg
      xmlns="http://www.w3.org/2000/svg"
      width="149.141"
      height="135.341"
      x="0"
      y="0"
      version="1.1"
      viewBox="0 0 149.141 135.341"
      xmlSpace="preserve"
    >
      <g fill="#2C3033" transform="matrix(1.43489 0 0 1.43489 2.826 -4.073)">
        <path d="M85.631 38.233c-.942-.569-2.136-1.087-2.657-1.304.061-.535.188-1.758.188-2.84 0-13.39-10.894-24.281-24.283-24.281-7.702 0-15.025 3.716-19.589 9.937a25.408 25.408 0 00-1.319 2.047c-.569-.332-1.445-.812-2.285-1.13a15.23 15.23 0 00-5.417-.988c-8.493 0-15.403 6.909-15.403 15.401 0 1.093.192 2.258.28 2.742-.438.238-1.488.832-2.332 1.462C7.92 42.915 5 48.722 5 54.809c0 10.67 8.681 19.35 19.351 19.35h7.176a1.592 1.592 0 100-3.185h-7.176c-8.915 0-16.167-7.251-16.167-16.165 0-5.162 2.38-9.891 6.528-12.977.873-.648 2.109-1.302 2.116-1.307 1.095-.57 1.73-1.915 1.479-3.127-.002-.013-.258-1.262-.258-2.323 0-6.736 5.482-12.217 12.22-12.217 1.479 0 2.921.262 4.287.781 1.055.399 2.298 1.198 2.309 1.206a2.496 2.496 0 001.958.33 2.505 2.505 0 001.577-1.219c.007-.014.757-1.373 1.458-2.329 3.967-5.407 10.329-8.636 17.021-8.636 11.635 0 21.099 9.464 21.099 21.098 0 1.193-.191 2.684-.194 2.697-.165 1.253.595 2.54 1.762 2.997.014.005 1.455.582 2.442 1.176 4.902 2.956 7.829 8.133 7.829 13.849 0 8.914-7.252 16.165-16.167 16.165h-7.176a1.592 1.592 0 100 3.185h7.176c10.67 0 19.351-8.68 19.351-19.35-.001-6.84-3.503-13.037-9.37-16.575z"></path>
        <path d="M50 90.191c.879 0 1.592-.714 1.592-1.592V46.606L64.195 59.21a1.59 1.59 0 002.251 0 1.591 1.591 0 000-2.251L52.149 42.663c-1.145-1.148-3.154-1.148-4.298-.002L33.554 56.959a1.591 1.591 0 102.251 2.251l12.604-12.604V88.6A1.59 1.59 0 0050 90.191z"></path>
      </g>
    </svg>